<svg xmlns="http://www.w3.org/2000/svg" viewBox="0 0 1000 900">
  <!-- Styles -->
  <style>
    .table { fill: #f0f8ff; stroke: #4682b4; stroke-width: 2; }
    .pk-field { fill: #ffe6e6; }
    .fk-field { fill: #e6f3ff; }
    .normal-field { fill: white; }
    .table-header { fill: #4682b4; }
    .table-title { fill: white; font-family: Arial; font-size: 14px; font-weight: bold; }
    .field-text { font-family: Arial; font-size: 12px; }
    .pk-text { font-weight: bold; }
    .fk-text { font-style: italic; }
    .relationship { stroke: #666; stroke-width: 1.5; fill: none; marker-end: url(#arrow); }
    .mm-relationship { stroke: #666; stroke-dasharray: 4; stroke-width: 1.5; fill: none; marker-end: url(#arrow); }
  </style>
  
  <!-- Arrow Marker -->
  <defs>
    <marker id="arrow" markerWidth="10" markerHeight="10" refX="9" refY="3" orient="auto" markerUnits="strokeWidth">
      <path d="M0,0 L0,6 L9,3 z" fill="#666" />
    </marker>
  </defs>
  
  <!-- Tables -->
  
  <!-- Tenants Table -->
  <g transform="translate(50, 50)">
    <rect width="180" height="30" class="table-header" rx="5" ry="5" />
    <text x="90" y="20" text-anchor="middle" class="table-title">tenants</text>
    <rect width="180" height="240" y="30" class="table" rx="0" ry="0" />
    <text x="10" y="50" class="field-text pk-text">★ tenant_id (UUID)</text>
    <text x="10" y="70" class="field-text pk-text">★ tenant_code (VARCHAR)</text>
    <text x="10" y="90" class="field-text">tenant_name (VARCHAR)</text>
    <text x="10" y="110" class="field-text">tenant_address (TEXT)</text>
    <text x="10" y="130" class="field-text">website (VARCHAR)</text>
    <text x="10" y="150" class="field-text">contact_name (VARCHAR)</text>
    <text x="10" y="170" class="field-text">contact_phone (VARCHAR)</text>
    <text x="10" y="190" class="field-text">contact_email (VARCHAR)</text>
    <text x="10" y="210" class="field-text">logo (BYTEA)</text>
    <text x="10" y="230" class="field-text">industry (VARCHAR)</text>
    <text x="10" y="250" class="field-text">enabled (BOOLEAN)</text>
  </g>
  
  <!-- Accounts Table -->
  <g transform="translate(50, 350)">
    <rect width="180" height="30" class="table-header" rx="5" ry="5" />
    <text x="90" y="20" text-anchor="middle" class="table-title">accounts</text>
    <rect width="180" height="240" y="30" class="table" rx="0" ry="0" />
    <text x="10" y="50" class="field-text pk-text">★ user_id (UUID)</text>
    <text x="10" y="70" class="field-text pk-text">★ username (VARCHAR)</text>
    <text x="10" y="90" class="field-text">password (VARCHAR)</text>
    <text x="10" y="110" class="field-text">full_name (VARCHAR)</text>
    <text x="10" y="130" class="field-text">phone_number (VARCHAR)</text>
    <text x="10" y="150" class="field-text">email (VARCHAR)</text>
    <text x="10" y="170" class="field-text">active (BOOLEAN)</text>
    <text x="10" y="190" class="field-text">role (user_role_enum)</text>
    <text x="10" y="210" class="field-text">company_name (VARCHAR)</text>
    <text x="10" y="250" class="field-text">enabled (BOOLEAN)</text>
  </g>
  
  <!-- Accounts to Tenants Table -->
  <g transform="translate(300, 150)">
    <rect width="180" height="30" class="table-header" rx="5" ry="5" />
    <text x="90" y="20" text-anchor="middle" class="table-title">accounts_to_tenants</text>
    <rect width="180" height="100" y="30" class="table" rx="0" ry="0" />
    <text x="10" y="50" class="field-text fk-text">☆ user_id (UUID)</text>
    <text x="10" y="70" class="field-text fk-text">☆ tenant_code (VARCHAR)</text>
    <text x="10" y="90" class="field-text">created_at (TIMESTAMP)</text>
  </g>
  
  <!-- Events Table -->
  <g transform="translate(300, 350)">
    <rect width="180" height="30" class="table-header" rx="5" ry="5" />
    <text x="90" y="20" text-anchor="middle" class="table-title">events</text>
    <rect width="180" height="260" y="30" class="table" rx="0" ry="0" />
    <text x="10" y="50" class="field-text pk-text">★ event_id (UUID)</text>
    <text x="10" y="70" class="field-text pk-text">★ event_code (VARCHAR)</text>
    <text x="10" y="90" class="field-text">event_name (VARCHAR)</text>
    <text x="10" y="110" class="field-text fk-text">☆ tenant_code (VARCHAR)</text>
    <text x="10" y="130" class="field-text">event_description (TEXT)</text>
    <text x="10" y="150" class="field-text">event_status (ENUM)</text>
    <text x="10" y="170" class="field-text">start_time (TIMESTAMP)</text>
    <text x="10" y="190" class="field-text">end_time (TIMESTAMP)</text>
    <text x="10" y="210" class="field-text">venue_name (VARCHAR)</text>
    <text x="10" y="230" class="field-text">venue_address (TEXT)</text>
    <text x="10" y="250" class="field-text">floor_plan_img (BYTEA)</text>
    <text x="10" y="270" class="field-text">enabled (BOOLEAN)</text>
  </g>
  
  <!-- Guests Table -->
  <g transform="translate(550, 50)">
    <rect width="180" height="30" class="table-header" rx="5" ry="5" />
    <text x="90" y="20" text-anchor="middle" class="table-title">guests</text>
    <rect width="180" height="240" y="30" class="table" rx="0" ry="0" />
    <text x="10" y="50" class="field-text pk-text">★ guest_id (UUID)</text>
    <text x="10" y="70" class="field-text pk-text">★ guest_code (VARCHAR)</text>
    <text x="10" y="90" class="field-text">guest_description (VARCHAR)</text>
    <text x="10" y="110" class="field-text">first_name (VARCHAR)</text>
    <text x="10" y="130" class="field-text">last_name (VARCHAR)</text>
    <text x="10" y="150" class="field-text">email (VARCHAR)</text>
    <text x="10" y="170" class="field-text">front_img (BYTEA)</text>
    <text x="10" y="190" class="field-text">back_img (BYTEA)</text>
    <text x="10" y="210" class="field-text">identity_type (ENUM)</text>
    <text x="10" y="230" class="field-text">guest_type (ENUM)</text>
    <text x="10" y="250" class="field-text">enabled (BOOLEAN)</text>
  </g>
  
  <!-- Event Guests Table -->
  <g transform="translate(550, 350)">
    <rect width="180" height="30" class="table-header" rx="5" ry="5" />
    <text x="90" y="20" text-anchor="middle" class="table-title">event_guests</text>
    <rect width="180" height="140" y="30" class="table" rx="0" ry="0" />
    <text x="10" y="50" class="field-text fk-text">☆ event_code (VARCHAR)</text>
    <text x="10" y="70" class="field-text fk-text">☆ guest_code (VARCHAR)</text>
    <text x="10" y="90" class="field-text">registration_time (TIMESTAMP)</text>
    <text x="10" y="110" class="field-text">attendance_status (BOOLEAN)</text>
    <text x="10" y="130" class="field-text">check_in_time (TIMESTAMP)</text>
    <text x="10" y="150" class="field-text">check_out_time (TIMESTAMP)</text>
  </g>
  
  <!-- Points of Checkin Table -->
  <g transform="translate(550, 550)">
    <rect width="180" height="30" class="table-header" rx="5" ry="5" />
    <text x="90" y="20" text-anchor="middle" class="table-title">points_of_checkin</text>
    <rect width="180" height="220" y="30" class="table" rx="0" ry="0" />
    <text x="10" y="50" class="field-text pk-text">★ point_id (UUID)</text>
    <text x="10" y="70" class="field-text pk-text">★ point_code (VARCHAR)</text>
    <text x="10" y="90" class="field-text">point_name (VARCHAR)</text>
    <text x="10" y="110" class="field-text fk-text">☆ event_code (VARCHAR)</text>
    <text x="10" y="130" class="field-text fk-text">☆ username (VARCHAR)</text>
    <text x="10" y="150" class="field-text">latitude (DECIMAL)</text>
    <text x="10" y="170" class="field-text">longitude (DECIMAL)</text>
    <text x="10" y="190" class="field-text">status (ENUM)</text>
    <text x="10" y="210" class="field-text">floor_level (VARCHAR)</text>
    <text x="10" y="230" class="field-text">enabled (BOOLEAN)</text>
  </g>
  
  <!-- Devices Table -->
  <g transform="translate(800, 50)">
    <rect width="180" height="30" class="table-header" rx="5" ry="5" />
    <text x="90" y="20" text-anchor="middle" class="table-title">devices</text>
    <rect width="180" height="220" y="30" class="table" rx="0" ry="0" />
    <text x="10" y="50" class="field-text pk-text">★ device_id (UUID)</text>
    <text x="10" y="70" class="field-text pk-text">★ device_code (VARCHAR)</text>
    <text x="10" y="90" class="field-text">device_name (VARCHAR)</text>
    <text x="10" y="110" class="field-text">device_type (VARCHAR)</text>
    <text x="10" y="130" class="field-text fk-text">☆ point_code (VARCHAR)</text>
    <text x="10" y="150" class="field-text">description (TEXT)</text>
    <text x="10" y="170" class="field-text">status (ENUM)</text>
    <text x="10" y="190" class="field-text">firmware_version (VARCHAR)</text>
    <text x="10" y="210" class="field-text">battery_level (INTEGER)</text>
    <text x="10" y="230" class="field-text">enabled (BOOLEAN)</text>
  </g>
  
  <!-- Transactions Table -->
  <g transform="translate(800, 350)">
    <rect width="180" height="30" class="table-header" rx="5" ry="5" />
    <text x="90" y="20" text-anchor="middle" class="table-title">transactions</text>
    <rect width="180" height="220" y="30" class="table" rx="0" ry="0" />
    <text x="10" y="50" class="field-text pk-text">★ tran_id (UUID)</text>
    <text x="10" y="70" class="field-text fk-text">☆ point_code (VARCHAR)</text>
    <text x="10" y="90" class="field-text fk-text">☆ guest_code (VARCHAR)</text>
    <text x="10" y="110" class="field-text fk-text">☆ device_code (VARCHAR)</text>
    <text x="10" y="130" class="field-text">transaction_status (ENUM)</text>
    <text x="10" y="150" class="field-text">created_at (TIMESTAMP)</text>
    <text x="10" y="170" class="field-text">processing_time (INTEGER)</text>
    <text x="10" y="190" class="field-text">checkin_img1 (BYTEA)</text>
    <text x="10" y="210" class="field-text">gender_analysis (VARCHAR)</text>
    <text x="10" y="230" class="field-text">enabled (BOOLEAN)</text>
  </g>
  
  <!-- Analytics Table -->
  <g transform="translate(800, 600)">
    <rect width="180" height="30" class="table-header" rx="5" ry="5" />
    <text x="90" y="20" text-anchor="middle" class="table-title">analytics</text>
    <rect width="180" height="140" y="30" class="table" rx="0" ry="0" />
    <text x="10" y="50" class="field-text pk-text">★ analytics_id (UUID)</text>
    <text x="10" y="70" class="field-text fk-text">☆ event_code (VARCHAR)</text>
    <text x="10" y="90" class="field-text">metric_name (VARCHAR)</text>
    <text x="10" y="110" class="field-text">metric_value (JSONB)</text>
    <text x="10" y="130" class="field-text">time_period (VARCHAR)</text>
    <text x="10" y="150" class="field-text">calculation_time (TIMESTAMP)</text>
  </g>
  
  <!-- Relationships -->
  
  <!-- Tenants to Accounts_to_Tenants -->
  <path d="M 240 100 C 260 100, 280 180, 300 180" class="relationship" />
  
  <!-- Accounts to Accounts_to_Tenants -->
  <path d="M 240 380 C 260 380, 280 200, 300 200" class="relationship" />
  
  <!-- Tenants to Events -->
  <path d="M 200 290 C 240 310, 250 380, 300 410" class="relationship" />
  
  <!-- Events to Event_Guests -->
  <path d="M 480 410 L 550 410" class="relationship" />
  
  <!-- Guests to Event_Guests -->
  <path d="M 640 290 L 640 350" class="relationship" />
  
  <!-- Events to Points_of_Checkin -->
  <path d="M 390 610 C 420 610, 500 580, 550 610" class="relationship" />
  
  <!-- Accounts to Points_of_Checkin -->
  <path d="M 140 590 C 180 640, 400 640, 550 630" class="relationship" />
  
  <!-- Points_of_Checkin to Devices -->
  <path d="M 640 550 C 640 300, 780 150, 800 150" class="mm-relationship" />
  
  <!-- Points_of_Checkin to Transactions -->
  <path d="M 730 610 C 760 610, 780 420, 800 420" class="relationship" />
  
  <!-- Guests to Transactions -->
  <path d="M 730 180 C 860 180, 880 400, 800 400" class="relationship" />
  
  <!-- Devices to Transactions -->
  <path d="M 890 270 L 890 350" class="relationship" />
  
  <!-- Events to Analytics -->
  <path d="M 390 620 C 420 680, 750 680, 800 650" class="relationship" />
</svg>
